<svg xmlns="http://www.w3.org/2000/svg" viewBox="0 0 50 50"><path fill="#fff" d="M26.18 49.416c-2.984 0-5.962-.473-8.851-1.406a22.436 22.436 0 01-7.895-4.457c-2.311-2.018-4.201-4.613-5.619-7.719-1.418-3.109-2.138-6.824-2.138-11.045 0-3.496.651-6.765 1.936-9.718C4.895 12.127 6.674 9.54 8.901 7.38c2.229-2.158 4.858-3.866 7.815-5.076C19.683 1.091 22.867.476 26.181.476c2.993 0 5.855.478 8.507 1.42 2.67.952 5.037 2.333 7.037 4.104 2.012 1.783 3.622 3.982 4.784 6.536 1.164 2.558 1.754 5.439 1.754 8.563 0 2.638-.463 5.144-1.376 7.447-.9 2.271-2.081 4.299-3.511 6.025-1.442 1.742-3.076 3.141-4.857 4.158-1.853 1.057-3.693 1.592-5.472 1.592-1.631 0-2.978-.52-4.004-1.543a4.537 4.537 0 01-.705-.908 8.95 8.95 0 01-2.795 1.576c-3.375 1.156-6.564 1.166-9.078.01a10.023 10.023 0 01-3.205-2.316c-.879-.947-1.586-2.086-2.1-3.379a11.179 11.179 0 01-.771-4.141c0-2.146.39-4.392 1.159-6.673a23.814 23.814 0 013.255-6.339 18.352 18.352 0 015.186-4.874c2.098-1.311 4.437-1.975 6.952-1.975 2.296 0 4.39.551 6.225 1.638a9.037 9.037 0 012.269 1.878l.484-1.333a1.489 1.489 0 011.39-.974h1.337c.482 0 .937.237 1.214.634.283.406.345.921.166 1.379l-7.06 18.313a19.082 19.082 0 00-.837 2.475c-.161.625-.216 1.176-.158 1.596.043.318.152.447.253.533.041.035.257.189.951.189 1.045 0 2.184-.359 3.386-1.066 1.286-.758 2.492-1.813 3.585-3.135 1.103-1.336 2.04-2.959 2.786-4.822.732-1.831 1.104-3.839 1.104-5.97 0-2.408-.449-4.646-1.337-6.652-.888-2.005-2.127-3.744-3.683-5.167-1.569-1.431-3.471-2.561-5.647-3.359-2.201-.805-4.619-1.213-7.187-1.213-2.882 0-5.588.527-8.041 1.568-2.464 1.046-4.628 2.491-6.432 4.294a19.905 19.905 0 00-4.262 6.368c-1.02 2.408-1.537 5.05-1.537 7.853 0 3.388.549 6.392 1.631 8.927 1.076 2.529 2.55 4.67 4.381 6.363a18.46 18.46 0 006.422 3.857c2.458.873 5.095 1.316 7.838 1.316 1.799 0 3.544-.238 5.188-.707a21.397 21.397 0 004.728-1.992 21.974 21.974 0 004.08-3.008 23.248 23.248 0 003.231-3.709c.282-.4.734-.633 1.214-.633h1.465c.54 0 1.035.293 1.292.764.257.445.25 1.021-.03 1.48a23.313 23.313 0 01-4.001 4.953 26.19 26.19 0 01-5.125 3.775 26.187 26.187 0 01-5.832 2.395c-2.05.564-4.139.849-6.212.849zm.511-35.426c-1.683 0-3.257.483-4.68 1.435a14.862 14.862 0 00-3.903 3.85 19.73 19.73 0 00-2.573 5.148c-.605 1.834-.912 3.583-.912 5.196 0 .951.157 1.826.467 2.6a6.455 6.455 0 001.293 2.049 5.786 5.786 0 001.927 1.342c1.287.557 2.956.629 4.769.203a6.44 6.44 0 002.148-.961c.714-.482 1.425-1.172 2.114-2.045.687-.871 1.31-2.018 1.85-3.406l4.33-11.224c-.23-.692-.537-1.276-.915-1.74a5.995 5.995 0 00-1.653-1.398 7.46 7.46 0 00-2.068-.797 10.336 10.336 0 00-2.194-.252z"/></svg>