<svg xmlns="http://www.w3.org/2000/svg" viewBox="0 0 512 512"><circle cx="256" cy="256" r="256" fill="#324a5e"/><path d="M509.64 290.766l-59.444-59.444-16.653 17.161-60.235-60.235-28.817-6.952-33.244 21.282 50.728 50.728-39.671.35L190.34 121.691l-25.566 3.434-14.932 36.466 92.77 92.77L56.889 256l120.172 120.172-34.838 22.05L256 512c129.591 0 236.675-96.297 253.64-221.234z" fill="#2b3b4e"/><path d="M440.385 284.444H113.778v-56.889h326.608c8.132 0 14.726 6.592 14.726 14.726v27.439c-.001 8.132-6.595 14.724-14.727 14.724z" fill="#eaa22f"/><path d="M113.778 255.569v28.875h326.608c8.132 0 14.726-6.592 14.726-14.726v-14.15H113.778z" fill="#e09112"/><path fill="#31bafd" d="M113.778 227.556h302.839v56.889H113.778z"/><path fill="#2b9ed8" d="M113.778 256h302.839v28.444H113.778z"/><path fill="#fee187" d="M113.778 227.556L56.889 256l56.889 28.444z"/><path fill="#ffc61b" d="M57.751 255.569l-.862.431 56.889 28.444v-28.875z"/><path fill="#59595b" d="M56.889 256l26.577 13.288v-26.576z"/><path fill="#272525" d="M57.751 255.569l-.862.431 26.577 13.288v-13.719z"/><circle cx="170.667" cy="142.222" r="28.444" fill="#fff"/><path d="M170.667 113.778c-.193 0-.381.026-.574.029v56.83c.191.003.379.029.574.029 15.71 0 28.444-12.734 28.444-28.444s-12.736-28.444-28.444-28.444z" fill="#d0d1d3"/><path fill="#ffc61b" d="M142.222 312.889h85.333v85.333h-85.333z"/><path fill="#eaa22f" d="M184.32 312.889h43.236v85.333H184.32z"/><path fill="#fff" d="M311.249 202.578l18.622-60.911 43.439 46.582z"/><path fill="#d0d1d3" d="M329.871 141.667l-.148.485 14.001 52.929 29.586-6.832z"/></svg>