 <svg xmlns="http://www.w3.org/2000/svg"   >
    <defs>
     <symbol id='about'>
         <path d="M3.99999 10L12 3L20 10L20 20H15V16C15 15.2044 14.6839 14.4413 14.1213 13.8787C13.5587 13.3161 12.7956 13 12 13C11.2043 13 10.4413 13.3161 9.87868 13.8787C9.31607 14.4413 9 15.2043 9 16V20H4L3.99999 10Z" stroke="currentColor" stroke-width="1.5" stroke-linecap="round" stroke-linejoin="round" fill='none' />
    </symbol>
    </defs>

    <defs>
       <symbol id='contacts'>
         <path d="M3.5 5.5L10.5858 12.5858C11.3668 13.3668 12.6332 13.3668 13.4142 12.5858L20.5 5.5M4 19H20C20.5523 19 21 18.5523 21 18V6C21 5.44772 20.5523 5 20 5H4C3.44772 5 3 5.44772 3 6V18C3 18.5523 3.44772 19 4 19Z" stroke="currentColor" stroke-width="1.5" stroke-linecap="round" stroke-linejoin="round"  fill="none"/>
       </symbol>
    </defs>
    <defs>
       <symbol id='education'>
         <path d="M4 16L3.46967 15.4697C3.32902 15.6103 3.25 15.8011 3.25 16H4ZM17 3L17.5303 2.46967C17.2374 2.17678 16.7626 2.17678 16.4697 2.46967L17 3ZM21 7L21.5303 7.53033C21.8232 7.23744 21.8232 6.76256 21.5303 6.46967L21 7ZM8 20V20.75C8.19891 20.75 8.38968 20.671 8.53033 20.5303L8 20ZM4 20H3.25C3.25 20.4142 3.58579 20.75 4 20.75V20ZM12 19.25C11.5858 19.25 11.25 19.5858 11.25 20C11.25 20.4142 11.5858 20.75 12 20.75V19.25ZM20.5 20.75C20.9142 20.75 21.25 20.4142 21.25 20C21.25 19.5858 20.9142 19.25 20.5 19.25V20.75ZM4.53033 16.5303L17.5303 3.53033L16.4697 2.46967L3.46967 15.4697L4.53033 16.5303ZM16.4697 3.53033L20.4697 7.53033L21.5303 6.46967L17.5303 2.46967L16.4697 3.53033ZM20.4697 6.46967L7.46967 19.4697L8.53033 20.5303L21.5303 7.53033L20.4697 6.46967ZM8 19.25H4V20.75H8V19.25ZM4.75 20V16H3.25V20H4.75ZM13.4697 6.53033L17.4697 10.5303L18.5303 9.46967L14.5303 5.46967L13.4697 6.53033ZM12 20.75H20.5V19.25H12V20.75Z" fill="none" stroke="currentColor" stroke-width="1.1" stroke-linecap="round"/>
      </symbol>
    </defs>

    <defs>
     <symbol id='experience'>
         <path d="M20 10V18C20 19.1046 19.1046 20 18 20H6C4.89543 20 4 19.1046 4 18V10M15 6V5C15 3.89543 14.1046 3 13 3H11C9.89543 3 9 3.89543 9 5V6M12 12V16M6 14H18C19.1046 14 20 13.1046 20 12V8C20 6.89543 19.1046 6 18 6H6C4.89543 6 4 6.89543 4 8V12C4 13.1046 4.89543 14 6 14Z" fill="none" stroke="currentColor" stroke-width="1.5" stroke-linecap="round" stroke-linejoin="round"/>
    </symbol>
    </defs>
   

    <defs>
     <symbol id='skills'>
       <path d="M10.5303 9.53033C10.8232 9.23744 10.8232 8.76256 10.5303 8.46967C10.2374 8.17678 9.76256 8.17678 9.46967 8.46967L10.5303 9.53033ZM7 12L6.46967 11.4697C6.17678 11.7626 6.17678 12.2374 6.46967 12.5303L7 12ZM9.46967 15.5303C9.76256 15.8232 10.2374 15.8232 10.5303 15.5303C10.8232 15.2374 10.8232 14.7626 10.5303 14.4697L9.46967 15.5303ZM13.4697 14.4697C13.1768 14.7626 13.1768 15.2374 13.4697 15.5303C13.7626 15.8232 14.2374 15.8232 14.5303 15.5303L13.4697 14.4697ZM17 12L17.5303 12.5303C17.8232 12.2374 17.8232 11.7626 17.5303 11.4697L17 12ZM14.5303 8.46967C14.2374 8.17678 13.7626 8.17678 13.4697 8.46967C13.1768 8.76256 13.1768 9.23744 13.4697 9.53033L14.5303 8.46967ZM4 4V3.25C3.58579 3.25 3.25 3.58579 3.25 4H4ZM20 4H20.75C20.75 3.58579 20.4142 3.25 20 3.25V4ZM20 20V20.75C20.4142 20.75 20.75 20.4142 20.75 20H20ZM4 20H3.25C3.25 20.4142 3.58579 20.75 4 20.75V20ZM9.46967 8.46967L6.46967 11.4697L7.53033 12.5303L10.5303 9.53033L9.46967 8.46967ZM6.46967 12.5303L9.46967 15.5303L10.5303 14.4697L7.53033 11.4697L6.46967 12.5303ZM14.5303 15.5303L17.5303 12.5303L16.4697 11.4697L13.4697 14.4697L14.5303 15.5303ZM17.5303 11.4697L14.5303 8.46967L13.4697 9.53033L16.4697 12.5303L17.5303 11.4697ZM4 4.75H20V3.25H4V4.75ZM19.25 4V20H20.75V4H19.25ZM20 19.25H4V20.75H20V19.25ZM4.75 20V4H3.25V20H4.75Z" fill="none" stroke="currentColor"/>
    </symbol>
    </defs>

   <defs>
       <symbol id='email'>
         <path fill="currentColor" stroke="currentColor" stroke-width="0.5" d="M26.18,49.416c-2.984,0-5.962-0.473-8.851-1.406c-2.933-0.947-5.589-2.447-7.895-4.457 c-2.311-2.018-4.201-4.613-5.619-7.719c-1.418-3.109-2.138-6.824-2.138-11.045c0-3.496,0.651-6.765,1.936-9.718 C4.895,12.127,6.674,9.54,8.901,7.38c2.229-2.158,4.858-3.866,7.815-5.076c2.967-1.213,6.151-1.828,9.465-1.828 c2.993,0,5.855,0.478,8.507,1.42c2.67,0.952,5.037,2.333,7.037,4.104c2.012,1.783,3.622,3.982,4.784,6.536 c1.164,2.558,1.754,5.439,1.754,8.563c0,2.638-0.463,5.144-1.376,7.447c-0.9,2.271-2.081,4.299-3.511,6.025 c-1.442,1.742-3.076,3.141-4.857,4.158c-1.853,1.057-3.693,1.592-5.472,1.592c-1.631,0-2.978-0.52-4.004-1.543 c-0.28-0.281-0.515-0.584-0.705-0.908c-0.865,0.709-1.801,1.238-2.795,1.576c-3.375,1.156-6.564,1.166-9.078,0.01 c-1.235-0.568-2.313-1.348-3.205-2.316c-0.879-0.947-1.586-2.086-2.1-3.379c-0.512-1.291-0.771-2.684-0.771-4.141 c0-2.146,0.39-4.392,1.159-6.673c0.764-2.27,1.859-4.403,3.255-6.339c1.418-1.97,3.163-3.61,5.186-4.874 c2.098-1.311,4.437-1.975,6.952-1.975c2.296,0,4.39,0.551,6.225,1.638c0.886,0.524,1.644,1.152,2.269,1.878l0.484-1.333 c0.217-0.585,0.774-0.974,1.39-0.974h1.337c0.482,0,0.937,0.237,1.214,0.634c0.283,0.406,0.345,0.921,0.166,1.379l-7.06,18.313 c-0.365,0.893-0.644,1.719-0.837,2.475c-0.161,0.625-0.216,1.176-0.158,1.596c0.043,0.318,0.152,0.447,0.253,0.533 c0.041,0.035,0.257,0.189,0.951,0.189c1.045,0,2.184-0.359,3.386-1.066c1.286-0.758,2.492-1.813,3.585-3.135 c1.103-1.336,2.04-2.959,2.786-4.822c0.732-1.831,1.104-3.839,1.104-5.97c0-2.408-0.449-4.646-1.337-6.652 c-0.888-2.005-2.127-3.744-3.683-5.167c-1.569-1.431-3.471-2.561-5.647-3.359c-2.201-0.805-4.619-1.213-7.187-1.213 c-2.882,0-5.588,0.527-8.041,1.568c-2.464,1.046-4.628,2.491-6.432,4.294c-1.807,1.808-3.241,3.95-4.262,6.368 c-1.02,2.408-1.537,5.05-1.537,7.853c0,3.388,0.549,6.392,1.631,8.927c1.076,2.529,2.55,4.67,4.381,6.363 c1.836,1.699,3.996,2.998,6.422,3.857c2.458,0.873,5.095,1.316,7.838,1.316c1.799,0,3.544-0.238,5.188-0.707 c1.657-0.475,3.248-1.145,4.728-1.992c1.487-0.854,2.86-1.865,4.08-3.008c1.236-1.154,2.323-2.402,3.231-3.709 c0.282-0.4,0.734-0.633,1.214-0.633h1.465c0.54,0,1.035,0.293,1.292,0.764c0.257,0.445,0.25,1.021-0.03,1.48 c-1.077,1.797-2.425,3.465-4.001,4.953c-1.573,1.48-3.297,2.75-5.125,3.775c-1.834,1.027-3.796,1.834-5.832,2.395 C30.342,49.131,28.253,49.416,26.18,49.416z M26.691,13.99c-1.683,0-3.257,0.483-4.68,1.435c-1.515,1.017-2.828,2.312-3.903,3.85 c-1.098,1.567-1.963,3.299-2.573,5.148c-0.605,1.834-0.912,3.583-0.912,5.196c0,0.951,0.157,1.826,0.467,2.6 c0.311,0.779,0.746,1.469,1.293,2.049c0.536,0.568,1.184,1.021,1.927,1.342c1.287,0.557,2.956,0.629,4.769,0.203 c0.737-0.172,1.459-0.494,2.148-0.961c0.714-0.482,1.425-1.172,2.114-2.045c0.687-0.871,1.31-2.018,1.85-3.406l4.33-11.224 c-0.23-0.692-0.537-1.276-0.915-1.74c-0.477-0.575-1.034-1.047-1.653-1.398c-0.655-0.371-1.352-0.639-2.068-0.797 C28.121,14.075,27.382,13.99,26.691,13.99z"/>
       </symbol>
    </defs>
     <defs>
       <symbol id='git'>
        <path fill="currentColor" stroke="currentColor" d="M409.132,114.573c-19.608-33.596-46.205-60.194-79.798-79.8C295.736,15.166,259.057,5.365,219.271,5.365
		c-39.781,0-76.472,9.804-110.063,29.408c-33.596,19.605-60.192,46.204-79.8,79.8C9.803,148.168,0,184.854,0,224.63
		c0,47.78,13.94,90.745,41.827,128.906c27.884,38.164,63.906,64.572,108.063,79.227c5.14,0.954,8.945,0.283,11.419-1.996
		c2.475-2.282,3.711-5.14,3.711-8.562c0-0.571-0.049-5.708-0.144-15.417c-0.098-9.709-0.144-18.179-0.144-25.406l-6.567,1.136
		c-4.187,0.767-9.469,1.092-15.846,1c-6.374-0.089-12.991-0.757-19.842-1.999c-6.854-1.231-13.229-4.086-19.13-8.559
		c-5.898-4.473-10.085-10.328-12.56-17.556l-2.855-6.57c-1.903-4.374-4.899-9.233-8.992-14.559
		c-4.093-5.331-8.232-8.945-12.419-10.848l-1.999-1.431c-1.332-0.951-2.568-2.098-3.711-3.429c-1.142-1.331-1.997-2.663-2.568-3.997
		c-0.572-1.335-0.098-2.43,1.427-3.289c1.525-0.859,4.281-1.276,8.28-1.276l5.708,0.853c3.807,0.763,8.516,3.042,14.133,6.851
		c5.614,3.806,10.229,8.754,13.846,14.842c4.38,7.806,9.657,13.754,15.846,17.847c6.184,4.093,12.419,6.136,18.699,6.136
		c6.28,0,11.704-0.476,16.274-1.423c4.565-0.952,8.848-2.383,12.847-4.285c1.713-12.758,6.377-22.559,13.988-29.41
		c-10.848-1.14-20.601-2.857-29.264-5.14c-8.658-2.286-17.605-5.996-26.835-11.14c-9.235-5.137-16.896-11.516-22.985-19.126
		c-6.09-7.614-11.088-17.61-14.987-29.979c-3.901-12.374-5.852-26.648-5.852-42.826c0-23.035,7.52-42.637,22.557-58.817
		c-7.044-17.318-6.379-36.732,1.997-58.24c5.52-1.715,13.706-0.428,24.554,3.853c10.85,4.283,18.794,7.952,23.84,10.994
		c5.046,3.041,9.089,5.618,12.135,7.708c17.705-4.947,35.976-7.421,54.818-7.421s37.117,2.474,54.823,7.421l10.849-6.849
		c7.419-4.57,16.18-8.758,26.262-12.565c10.088-3.805,17.802-4.853,23.134-3.138c8.562,21.509,9.325,40.922,2.279,58.24
		c15.036,16.18,22.559,35.787,22.559,58.817c0,16.178-1.958,30.497-5.853,42.966c-3.9,12.471-8.941,22.457-15.125,29.979
		c-6.191,7.521-13.901,13.85-23.131,18.986c-9.232,5.14-18.182,8.85-26.84,11.136c-8.662,2.286-18.415,4.004-29.263,5.146
		c9.894,8.562,14.842,22.077,14.842,40.539v60.237c0,3.422,1.19,6.279,3.572,8.562c2.379,2.279,6.136,2.95,11.276,1.995
		c44.163-14.653,80.185-41.062,108.068-79.226c27.88-38.161,41.825-81.126,41.825-128.906
		C438.536,184.851,428.728,148.168,409.132,114.573z"/>
       </symbol>
    </defs>

     <defs>
       <symbol id='telegram'>
      <path fill="none" stroke="currentColor" stroke-width="2" d="M11 16.859l11.24 9.89a.998.998 0 001.635-.526l4.702-20.517a1 1 0 00-1.34-1.154l-23.07 9.063a1 1 0 00.17 1.911L11 16.86zm0 .001L28.014 4.57"/>
      <path fill="none" stroke="currentColor" stroke-width="2" d="M16.613 21.799l-3.906 3.906A1 1 0 0111 24.998v-8.139" />
       </symbol>
    </defs>

     <defs>
       <symbol id='sun'>
     <path fill-rule="evenodd" clip-rule="evenodd" d="M12 8C9.79086 8 8 9.79086 8 12C8 14.2091 9.79086 16 12 16C14.2091 16 16 14.2091 16 12C16 9.79086 14.2091 8 12 8ZM6 12C6 8.68629 8.68629 6 12 6C15.3137 6 18 8.68629 18 12C18 15.3137 15.3137 18 12 18C8.68629 18 6 15.3137 6 12Z" />
     <path fill-rule="evenodd" clip-rule="evenodd" d="M12 0C12.5523 0 13 0.447715 13 1V3C13 3.55228 12.5523 4 12 4C11.4477 4 11 3.55228 11 3V1C11 0.447715 11.4477 0 12 0Z" />
     <path fill-rule="evenodd" clip-rule="evenodd" d="M12 20C12.5523 20 13 20.4477 13 21V23C13 23.5523 12.5523 24 12 24C11.4477 24 11 23.5523 11 23V21C11 20.4477 11.4477 20 12 20Z" />
     <path fill-rule="evenodd" clip-rule="evenodd" d="M3.51286 3.51286C3.90339 3.12234 4.53655 3.12234 4.92708 3.51286L6.34708 4.93286C6.7376 5.32339 6.7376 5.95655 6.34708 6.34708C5.95655 6.7376 5.32339 6.7376 4.93286 6.34708L3.51286 4.92708C3.12234 4.53655 3.12234 3.90339 3.51286 3.51286Z" />
    <path fill-rule="evenodd" clip-rule="evenodd" d="M17.653 17.6529C18.0435 17.2624 18.6767 17.2624 19.0672 17.6529L20.4872 19.0729C20.8777 19.4634 20.8777 20.0966 20.4872 20.4871C20.0967 20.8776 19.4635 20.8776 19.073 20.4871L17.653 19.0671C17.2625 18.6766 17.2625 18.0434 17.653 17.6529Z" />
    <path fill-rule="evenodd" clip-rule="evenodd" d="M0 12C0 11.4477 0.447715 11 1 11H3C3.55228 11 4 11.4477 4 12C4 12.5523 3.55228 13 3 13H1C0.447715 13 0 12.5523 0 12Z" />
     <path fill-rule="evenodd" clip-rule="evenodd" d="M20 12C20 11.4477 20.4477 11 21 11H23C23.5523 11 24 11.4477 24 12C24 12.5523 23.5523 13 23 13H21C20.4477 13 20 12.5523 20 12Z" />
    <path fill-rule="evenodd" clip-rule="evenodd" d="M6.34708 17.6529C6.7376 18.0434 6.7376 18.6766 6.34708 19.0671L4.92708 20.4871C4.53655 20.8776 3.90339 20.8776 3.51286 20.4871C3.12234 20.0966 3.12234 19.4634 3.51286 19.0729L4.93286 17.6529C5.32339 17.2624 5.95655 17.2624 6.34708 17.6529Z" />
     <path fill-rule="evenodd" clip-rule="evenodd" d="M20.4872 3.51286C20.8777 3.90339 20.8777 4.53655 20.4872 4.92708L19.0672 6.34708C18.6767 6.7376 18.0435 6.7376 17.653 6.34708C17.2625 5.95655 17.2625 5.32339 17.653 4.93286L19.073 3.51286C19.4635 3.12234 20.0967 3.12234 20.4872 3.51286Z" />
       </symbol>
    </defs>

     <defs>
       <symbol id='moon'>
         <path fill-rule="evenodd" clip-rule="evenodd" d="M10.0811 0.509041C10.2746 0.852424 10.2484 1.27745 10.0141 1.59442C9.15985 2.75008 8.74879 4.17395 8.85566 5.60706C8.96254 7.04018 9.58023 8.38733 10.5964 9.40351C11.6126 10.4197 12.9597 11.0374 14.3929 11.1443C15.826 11.2511 17.2498 10.8401 18.4055 9.98585L18.9999 10.79L19.9957 10.882C19.8209 12.7734 19.1111 14.5758 17.9493 16.0785C16.7875 17.5811 15.2218 18.7218 13.4353 19.3671C11.6489 20.0124 9.71564 20.1355 7.86177 19.7221C6.0079 19.3088 4.3101 18.376 2.96702 17.0329C1.62394 15.6898 0.691147 13.992 0.277778 12.1381C-0.135591 10.2843 -0.0124347 8.35102 0.632836 6.56459C1.27811 4.77816 2.4188 3.21244 3.92145 2.05065C5.4241 0.88886 7.22654 0.179044 9.11788 0.00425972C9.51037 -0.0320113 9.88755 0.165658 10.0811 0.509041ZM17.5608 12.6836C16.5077 13.0646 15.3781 13.2233 14.2441 13.1387C12.3333 12.9962 10.5371 12.1726 9.1822 10.8177C7.82729 9.46282 7.0037 7.66661 6.8612 5.7558C6.77664 4.62183 6.93528 3.4922 7.31629 2.43908C6.53868 2.72043 5.8055 3.12204 5.14478 3.63289C3.94266 4.56232 3.0301 5.81489 2.51389 7.24404C1.99767 8.67318 1.89914 10.2198 2.22984 11.7029C2.56054 13.186 3.30677 14.5442 4.38123 15.6187C5.45569 16.6931 6.81394 17.4394 8.29703 17.7701C9.78013 18.1008 11.3267 18.0022 12.7559 17.486C14.185 16.9698 15.4376 16.0573 16.367 14.8551C16.8779 14.1944 17.2795 13.4612 17.5608 12.6836Z"/>
       </symbol>
    </defs>

   


</svg>

   
     
</svg>
<svg xmlns="http://www.w3.org/2000/svg">
  
</svg>