<svg xmlns="http://www.w3.org/2000/svg" height="253.037" width="251.845" version="1.0"><path d="M135.986 215.447l5.998 4.289c8.598 5.997 13.326 14.332 12.858 22.933l-.318 7.104 2.823-6.989c3.087-7.314 2.662-18.39-.985-26.593l-2.127-4.783 6.756 2.945c9.655 4.077 16.013 11.244 17.34 19.758l1.165 7.015 1.309-7.427c1.5-7.798-1.214-18.54-6.486-25.803l-3.075-4.239 7.222 1.475c10.29 1.978 17.996 7.666 21.064 15.718l2.596 6.62-.263-7.538c-.15-7.94-5.038-17.882-11.702-23.89l-3.888-3.506 7.37-.06c10.476-.206 19.196 3.752 23.868 10.992l3.912 5.932-1.82-7.316c-1.797-7.732-8.64-16.441-16.408-20.931l-4.53-2.62 7.196-1.591c10.204-2.387 19.556-.327 25.628 5.78l5.059 4.989-3.301-6.778c-3.362-7.19-11.866-14.286-20.395-17.06l-4.976-1.616 6.709-3.057c9.484-4.457 19.059-4.389 26.267.318l5.986 3.83-4.636-5.945c-4.783-6.334-14.574-11.502-23.493-12.44l-5.201-.546 5.927-4.386c8.352-6.333 17.732-8.263 25.76-5.157l6.65 2.498-5.768-4.848c-5.994-5.199-16.644-8.218-25.564-7.278l-5.201.546 4.886-5.524c6.855-7.933 15.63-11.771 24.127-10.404l7.023 1.057-6.65-3.539c-6.943-3.838-17.986-4.574-26.516-1.8l-4.975 1.618 3.631-6.419c5.058-9.187 12.843-14.768 21.44-15.202l7.089-.425-7.24-2.078c-7.588-2.309-18.543-.728-26.31 3.76l-4.531 2.618 2.221-7.036c3.04-10.039 9.495-17.117 17.814-19.33l6.847-1.893-7.513-.525c-7.903-.68-18.29 3.144-24.954 9.152l-3.888 3.506.711-7.344c.888-10.455 5.733-18.721 13.41-22.62l6.304-3.274-7.458 1.049c-7.87.98-17.236 6.884-22.507 14.148l-3.075 4.238-.83-7.332c-1.301-10.408 1.72-19.506 8.42-24.914l5.485-4.516-7.078 2.578c-7.494 2.597-15.428 10.321-19.076 18.524l-2.128 4.787-2.334-7c-3.436-9.91-2.368-19.438 3.063-26.122l4.428-5.56-6.388 3.995c-6.791 4.1-12.949 13.307-14.814 22.09l-1.087 5.125-3.737-6.36c-5.418-8.981-6.353-18.52-2.429-26.19l3.176-6.36-5.418 5.236c-5.792 5.426-9.903 15.716-9.903 24.694v5.237l-4.975-5.442c-7.163-7.654-10.058-16.793-7.814-25.112L123.543 0l-4.212 6.253c-4.539 6.51-6.422 17.43-4.557 26.215l1.086 5.122-5.997-4.288c-8.598-5.997-13.326-14.332-12.858-22.937l.316-7.104-2.822 6.993c-3.087 7.314-2.661 18.386.984 26.59l2.128 4.786-6.757-2.946c-9.655-4.076-16.012-11.245-17.34-19.757l-1.164-7.015-1.308 7.425c-1.5 7.796 1.212 18.54 6.486 25.805l3.073 4.236-7.22-1.475c-10.29-1.978-17.996-7.664-21.064-15.718l-2.596-6.619.263 7.537c.15 7.94 5.037 17.883 11.702 23.89l3.887 3.505-7.37.06c-10.475.208-19.195-3.752-23.867-10.988l-3.913-5.935 1.821 7.316c1.796 7.735 8.64 16.444 16.407 20.934l4.53 2.619-7.196 1.591c-10.204 2.384-19.555.327-25.627-5.78l-5.06-4.99 3.301 6.778c3.363 7.192 11.867 14.284 20.396 17.059l4.976 1.62-6.709 3.054c-9.486 4.458-19.06 4.39-26.269-.32L5.007 89.69l4.636 5.942c4.784 6.334 14.574 11.502 23.493 12.441l5.203.548-5.928 4.385c-8.353 6.334-17.732 8.261-25.76 5.156L0 115.665l5.769 4.846c5.994 5.202 16.644 8.218 25.563 7.28l5.203-.547-4.887 5.522c-6.855 7.936-15.63 11.772-24.128 10.406l-7.023-1.06 6.65 3.542c6.944 3.84 17.988 4.574 26.517 1.8l4.976-1.619-3.633 6.422c-5.057 9.186-12.843 14.768-21.439 15.199l-7.09.424 7.24 2.08c7.589 2.31 18.544.729 26.31-3.76l4.531-2.62-2.22 7.036c-3.04 10.041-9.495 17.12-17.814 19.333l-6.846 1.893 7.513.526c7.902.678 18.29-3.148 24.954-9.156l3.888-3.505-.712 7.347c-.887 10.451-5.732 18.72-13.41 22.615l-6.304 3.277 7.459-1.047c7.87-.98 17.236-6.888 22.507-14.152l3.075-4.236.83 7.333c1.302 10.408-1.72 19.503-8.42 24.913l-5.487 4.517 7.078-2.578c7.495-2.596 15.43-10.324 19.078-18.526l2.126-4.784 2.335 6.996c3.435 9.914 2.368 19.438-3.063 26.124l-4.429 5.56 6.388-3.995c6.792-4.1 12.95-13.31 14.814-22.092l1.088-5.122 3.736 6.36c5.419 8.98 6.353 18.52 2.43 26.19l-3.177 6.36 5.418-5.239c5.793-5.423 9.903-15.713 9.903-24.692v-5.238l4.976 5.444c7.163 7.655 10.058 16.793 7.815 25.112l-1.787 6.883 4.212-6.253c4.54-6.513 6.423-17.43 4.559-26.214l-1.087-5.123" fill="#fc0"/></svg>